# Blender v2.76 (sub 0) OBJ File: ''
# www.blender.org
mtllib FirstAidMedKit2.mtl
o Cube_Cube.001
v -0.352296 0.290012 0.436587
v -0.345099 0.475724 0.440571
v -0.352296 0.290012 -0.612992
v -0.345099 0.475724 -0.609007
v 0.311549 0.290012 0.436587
v 0.318746 0.475724 0.440571
v 0.311549 0.290012 -0.612992
v 0.318746 0.475724 -0.609007
vn -0.999200 0.038700 0.000000
vn 0.000000 0.021400 -0.999800
vn 0.999200 -0.038700 0.000000
vn 0.000000 -0.021400 0.999800
vn 0.000000 -1.000000 0.000000
vn 0.000000 1.000000 0.000000
g Cube_Cube.001_Material.001
usemtl Material.001
s off
f 4//1 3//1 1//1
f 4//2 8//2 7//2
f 8//3 6//3 5//3
f 2//4 1//4 5//4
f 3//5 7//5 5//5
f 8//6 4//6 2//6
f 2//1 4//1 1//1
f 3//2 4//2 7//2
f 7//3 8//3 5//3
f 6//4 2//4 5//4
f 1//5 3//5 5//5
f 6//6 8//6 2//6
